<svg width="40" height="40" viewBox="0 0 40 40" fill="none" xmlns="http://www.w3.org/2000/svg">
<mask id="mask0_1392_28267" style="mask-type:luminance" maskUnits="userSpaceOnUse" x="0" y="0" width="40" height="39">
<path d="M0.646484 0H39.3548V38.7083H0.646484V0Z" fill="white"/>
</mask>
<g mask="url(#mask0_1392_28267)">
<mask id="mask1_1392_28267" style="mask-type:luminance" maskUnits="userSpaceOnUse" x="0" y="0" width="40" height="39">
<path d="M20.0007 0C9.31315 0 0.646484 8.66667 0.646484 19.3542C0.646484 30.0417 9.31315 38.7083 20.0007 38.7083C30.6881 38.7083 39.3548 30.0417 39.3548 19.3542C39.3548 8.66667 30.6881 0 20.0007 0Z" fill="white"/>
</mask>
<g mask="url(#mask1_1392_28267)">
<path d="M0.646484 0H39.3548V38.7083H0.646484V0Z" fill="black"/>
</g>
</g>
<mask id="mask2_1392_28267" style="mask-type:luminance" maskUnits="userSpaceOnUse" x="7" y="5" width="24" height="26">
<path d="M7.98828 5.77344H30.0143V30.9349H7.98828V5.77344Z" fill="white"/>
</mask>
<g mask="url(#mask2_1392_28267)">
<path d="M26.5292 19.1068C26.5708 22.9036 29.9615 24.1693 29.9979 24.1849C29.9667 24.2734 29.4563 25.987 28.2115 27.7526C27.1333 29.2839 26.0188 30.8099 24.2583 30.8411C22.5292 30.8672 21.9719 29.8411 19.9979 29.8411C18.0188 29.8411 17.4042 30.8099 15.7636 30.8672C14.0656 30.9297 12.774 29.2161 11.6906 27.6953C9.47189 24.5755 7.77397 18.888 10.05 15.0495C11.1802 13.1432 13.2011 11.9349 15.3938 11.9036C17.0604 11.8724 18.6386 12.9922 19.6542 12.9922C20.675 12.9922 22.5865 11.6432 24.6021 11.8411C25.4406 11.8776 27.8052 12.1745 29.3208 14.3307C29.2011 14.4036 26.5031 15.9297 26.5292 19.1068ZM23.2844 9.77865C24.1854 8.72135 24.7896 7.24219 24.6229 5.77344C23.3261 5.82552 21.7531 6.61719 20.8208 7.67448C19.9875 8.61719 19.2531 10.1172 19.4511 11.5599C20.899 11.6693 22.3781 10.8411 23.2844 9.77865Z" fill="white"/>
</g>
</svg>
