<svg width="40" height="40" viewBox="0 0 40 40" fill="none" xmlns="http://www.w3.org/2000/svg">
<mask id="mask0_1392_28288" style="mask-type:luminance" maskUnits="userSpaceOnUse" x="0" y="0" width="40" height="39">
<path d="M0.646484 0H39.3548V38.6667H0.646484V0Z" fill="white"/>
</mask>
<g mask="url(#mask0_1392_28288)">
<path d="M38.9954 19.3542C38.9954 29.8437 30.4902 38.349 20.0007 38.349C9.51107 38.349 1.00586 29.8437 1.00586 19.3542C1.00586 8.86458 9.51107 0.359375 20.0007 0.359375C30.4902 0.359375 38.9954 8.86458 38.9954 19.3542Z" fill="#FF3131"/>
</g>
<mask id="mask1_1392_28288" style="mask-type:luminance" maskUnits="userSpaceOnUse" x="0" y="0" width="40" height="39">
<path d="M0.646484 0H39.3548V38.7083H0.646484V0Z" fill="white"/>
</mask>
<g mask="url(#mask1_1392_28288)">
<path d="M20.0007 38.7083C17.3861 38.7083 14.8548 38.1979 12.4694 37.1875C10.1621 36.2135 8.0944 34.8177 6.31315 33.0417C4.53711 31.2656 3.14128 29.1927 2.16732 26.8906C1.1569 24.5052 0.646484 21.9687 0.646484 19.3542C0.646484 16.7448 1.1569 14.2083 2.16732 11.8229C3.14128 9.51562 4.53711 7.44792 6.31315 5.67187C8.0944 3.89062 10.1621 2.49479 12.4694 1.52083C14.8548 0.510416 17.3861 0 20.0007 0C22.6152 0 25.1465 0.510416 27.5319 1.52083C29.8392 2.49479 31.9069 3.89062 33.6881 5.67187C35.4642 7.44792 36.86 9.51562 37.834 11.8229C38.8444 14.2083 39.3548 16.7448 39.3548 19.3542C39.3548 21.9687 38.8444 24.5052 37.834 26.8906C36.86 29.1927 35.4642 31.2656 33.6881 33.0417C31.9069 34.8177 29.8392 36.2135 27.5319 37.1875C25.1465 38.1979 22.6152 38.7083 20.0007 38.7083ZM20.0007 0.723959C9.72461 0.723959 1.37044 9.08333 1.37044 19.3542C1.37044 29.6302 9.72461 37.9896 20.0007 37.9896C30.2767 37.9896 38.6309 29.6302 38.6309 19.3542C38.6309 9.08333 30.2767 0.723959 20.0007 0.723959Z" fill="white"/>
</g>
<path d="M19.9063 31.4011C18.4063 31.4011 16.9479 31.099 15.5781 30.5105C14.2552 29.948 13.0677 29.1355 12.0521 28.1042C11.0365 27.073 10.2396 25.8751 9.68229 24.5417C9.10417 23.1563 8.8125 21.6928 8.8125 20.1824C8.8125 18.6667 9.10417 17.2032 9.68229 15.823C10.2396 14.4845 11.0365 13.2865 12.0521 12.2553C13.0677 11.224 14.2552 10.4115 15.5781 9.84904C16.9479 9.2605 18.4063 8.96362 19.9063 8.96362C22.2604 8.96362 24.5156 9.698 26.4167 11.099L24.2812 14.0105C23 13.0678 21.4896 12.573 19.9063 12.573C15.7813 12.573 12.4219 15.9845 12.4219 20.1824C12.4219 24.3751 15.7813 27.7865 19.9063 27.7865C24.0312 27.7865 27.3854 24.3751 27.3854 20.1824H30.9948C30.9948 21.6928 30.7031 23.1563 30.125 24.5417C29.5677 25.8751 28.7708 27.073 27.7552 28.1042C26.7396 29.1355 25.5521 29.948 24.2292 30.5105C22.8594 31.099 21.401 31.4011 19.9063 31.4011Z" fill="white"/>
<path d="M19.3965 18.2969H30.959V21.9062H19.3965V18.2969Z" fill="white"/>
</svg>
