<svg width="41" height="41" viewBox="0 0 41 41" fill="none" xmlns="http://www.w3.org/2000/svg">
<path d="M20.7969 40.9331C31.8426 40.9331 40.7969 31.9788 40.7969 20.9331C40.7969 9.88741 31.8426 0.933105 20.7969 0.933105C9.75118 0.933105 0.796875 9.88741 0.796875 20.9331C0.796875 31.9788 9.75118 40.9331 20.7969 40.9331Z" fill="#3C5A99"/>
<path d="M22.3828 30.9341V21.8247H25.4531L25.9141 18.2583H22.3828V15.9888C22.3828 14.9575 22.668 14.2583 24.1445 14.2583H26.0156V11.0786C25.6914 11.0356 24.5742 10.938 23.2734 10.938C20.5586 10.938 18.6992 12.5942 18.6992 15.6372V18.2622H15.6406V21.8286H18.6992V30.9341H22.3828Z" fill="white"/>
</svg>
