<svg width="41" height="41" viewBox="0 0 41 41" fill="none" xmlns="http://www.w3.org/2000/svg">
<path d="M20.7969 40.9331C31.8426 40.9331 40.7969 31.9788 40.7969 20.9331C40.7969 9.88741 31.8426 0.933105 20.7969 0.933105C9.75118 0.933105 0.796875 9.88741 0.796875 20.9331C0.796875 31.9788 9.75118 40.9331 20.7969 40.9331Z" fill="#181717"/>
<path d="M20.8008 11.1748C15.2734 11.1748 10.7969 15.6553 10.7969 21.1787C10.7969 25.6006 13.6641 29.3506 17.6367 30.6709C18.1367 30.7646 18.3203 30.4561 18.3203 30.1904C18.3203 29.9522 18.3125 29.3232 18.3086 28.4912C15.5273 29.0967 14.9375 27.1475 14.9375 27.1475C14.4805 25.9912 13.8242 25.6826 13.8242 25.6826C12.918 25.0615 13.8945 25.0732 13.8945 25.0732C14.8984 25.1436 15.4258 26.1045 15.4258 26.1045C16.3164 27.6357 17.7695 27.1943 18.3398 26.9365C18.4297 26.2881 18.6875 25.8467 18.9727 25.5967C16.75 25.3467 14.4141 24.4873 14.4141 20.6514C14.4141 19.5576 14.8008 18.667 15.4453 17.9678C15.332 17.7139 14.9961 16.6982 15.5312 15.3193C15.5312 15.3193 16.3711 15.0498 18.2812 16.3467C19.082 16.124 19.9336 16.0146 20.7812 16.0107C21.6328 16.0146 22.4805 16.124 23.2812 16.3467C25.1836 15.0537 26.0195 15.3193 26.0195 15.3193C26.5586 16.6982 26.2187 17.7139 26.1211 17.9678C26.7578 18.667 27.1484 19.5615 27.1484 20.6514C27.1484 24.4951 24.8086 25.3428 22.582 25.5889C22.9336 25.8896 23.2578 26.5029 23.2578 27.4404C23.2578 28.7803 23.2461 29.8545 23.2461 30.1787C23.2461 30.4404 23.4219 30.7529 23.9336 30.6553C27.9414 29.3467 30.8047 25.5967 30.8047 21.1787C30.8047 15.6553 26.3242 11.1748 20.8008 11.1748Z" fill="white"/>
</svg>
