<svg width="41" height="41" viewBox="0 0 41 41" fill="none" xmlns="http://www.w3.org/2000/svg">
<path d="M20.7969 40.9331C31.8426 40.9331 40.7969 31.9788 40.7969 20.9331C40.7969 9.88741 31.8426 0.933105 20.7969 0.933105C9.75118 0.933105 0.796875 9.88741 0.796875 20.9331C0.796875 31.9788 9.75118 40.9331 20.7969 40.9331Z" fill="#607D8B"/>
<path d="M20.7969 30.855C18.1484 30.855 15.6562 29.8237 13.7812 27.9487C11.9062 26.0737 10.875 23.5815 10.875 20.9331C10.875 18.2847 11.9062 15.7925 13.7812 13.9175C15.6562 12.0425 18.1484 11.0112 20.7969 11.0112C23.4453 11.0112 25.9375 12.0425 27.8125 13.9175C29.6875 15.7925 30.7188 18.2847 30.7188 20.9331C30.7188 23.5815 29.6875 26.0737 27.8125 27.9487C25.9375 29.8237 23.4453 30.855 20.7969 30.855ZM20.7969 12.9956C16.4219 12.9956 12.8594 16.5581 12.8594 20.9331C12.8594 25.3081 16.4219 28.8706 20.7969 28.8706C25.1719 28.8706 28.7344 25.3081 28.7344 20.9331C28.7344 16.5581 25.1719 12.9956 20.7969 12.9956Z" fill="white"/>
<path d="M29.7266 21.9263H11.8672C11.3203 21.9263 10.875 21.481 10.875 20.9341C10.875 20.3872 11.3203 19.9419 11.8672 19.9419H29.7266C30.2734 19.9419 30.7188 20.3872 30.7188 20.9341C30.7188 21.481 30.2734 21.9263 29.7266 21.9263Z" fill="white"/>
<path d="M20.832 30.854C20.5547 30.854 20.2891 30.7368 20.0977 30.5298C17.6992 27.9048 16.3398 24.5063 16.2656 20.9517C16.2656 20.936 16.2656 20.9243 16.2656 20.9087C16.3398 17.354 17.6992 13.9556 20.0977 11.3306C20.2852 11.1235 20.5508 11.0063 20.832 11.0063C21.1094 11.0063 21.375 11.1235 21.5664 11.3306C23.9648 13.9556 25.3242 17.354 25.3984 20.9087V20.9517C25.3242 24.5063 23.9648 27.9048 21.5664 30.5298C21.375 30.7368 21.1094 30.854 20.832 30.854ZM18.2539 20.9321C18.3125 23.6118 19.2227 26.1938 20.832 28.3149C22.4414 26.1938 23.3516 23.6157 23.4102 20.9321C23.3516 18.2524 22.4414 15.6704 20.832 13.5493C19.2227 15.6704 18.3125 18.2524 18.2539 20.9321Z" fill="white"/>
</svg>
