<svg width="41" height="41" viewBox="0 0 41 41" fill="none" xmlns="http://www.w3.org/2000/svg">
<path d="M20.7969 40.9331C31.8426 40.9331 40.7969 31.9788 40.7969 20.9331C40.7969 9.88741 31.8426 0.933105 20.7969 0.933105C9.75118 0.933105 0.796875 9.88741 0.796875 20.9331C0.796875 31.9788 9.75118 40.9331 20.7969 40.9331Z" fill="#E4405F"/>
<path d="M20.793 10.9331C18.0781 10.9331 17.7383 10.9448 16.6719 10.9917C15.6055 11.0425 14.8828 11.2104 14.2461 11.4565C13.5898 11.7104 13.0312 12.0542 12.4727 12.6089C11.9141 13.1636 11.5742 13.7222 11.3203 14.3823C11.0742 15.019 10.9062 15.7456 10.8555 16.8081C10.8047 17.8745 10.7969 18.2144 10.7969 20.9292C10.7969 23.644 10.8086 23.9839 10.8555 25.0503C10.9062 26.1128 11.0742 26.8394 11.3203 27.4761C11.5742 28.1323 11.918 28.6909 12.4727 29.2495C13.0273 29.8042 13.5859 30.1479 14.2461 30.4019C14.8828 30.648 15.6094 30.8159 16.6719 30.8667C17.7383 30.9175 18.0781 30.9253 20.793 30.9253C23.5078 30.9253 23.8477 30.9136 24.9141 30.8667C25.9766 30.8159 26.7031 30.648 27.3398 30.4019C27.9961 30.1479 28.5547 29.8042 29.1133 29.2495C29.668 28.6948 30.0117 28.1362 30.2656 27.4761C30.5117 26.8394 30.6797 26.1128 30.7305 25.0503C30.7812 23.9839 30.7891 23.644 30.7891 20.9292C30.7891 18.2144 30.7773 17.8745 30.7305 16.8081C30.6797 15.7456 30.5117 15.019 30.2656 14.3823C30.0117 13.7261 29.668 13.1675 29.1133 12.6089C28.5586 12.0542 28 11.7104 27.3398 11.4565C26.7031 11.2104 25.9766 11.0425 24.9141 10.9917C23.8477 10.9448 23.5078 10.9331 20.793 10.9331ZM20.793 12.7339C23.4609 12.7339 23.7812 12.7456 24.8359 12.7925C25.8125 12.8394 26.3398 12.9995 26.6914 13.1401C27.1602 13.3198 27.4922 13.5386 27.8438 13.8862C28.1914 14.2378 28.4102 14.5698 28.5898 15.0386C28.7266 15.3901 28.8906 15.9175 28.9336 16.894C28.9805 17.9487 28.9922 18.2651 28.9922 20.937C28.9922 23.6089 28.9805 23.9253 28.9297 24.98C28.8789 25.9565 28.7148 26.4839 28.5781 26.8354C28.3906 27.3042 28.1797 27.6362 27.8281 27.9878C27.4805 28.3354 27.1406 28.5542 26.6797 28.7339C26.3281 28.8706 25.793 29.0347 24.8164 29.0776C23.7539 29.1245 23.4414 29.1362 20.7656 29.1362C18.0898 29.1362 17.7773 29.1245 16.7148 29.0737C15.7383 29.023 15.2031 28.8589 14.8516 28.7222C14.3789 28.5347 14.0508 28.3237 13.7031 27.9722C13.3516 27.6245 13.1289 27.2847 12.9531 26.8237C12.8164 26.4722 12.6523 25.937 12.6016 24.9604C12.5625 23.9097 12.5508 23.5854 12.5508 20.9253C12.5508 18.2612 12.5625 17.937 12.6016 16.8745C12.6523 15.8979 12.8125 15.3628 12.9531 15.0112C13.1289 14.5347 13.3516 14.2104 13.7031 13.8589C14.0508 13.5112 14.3789 13.2847 14.8516 13.1089C15.2031 12.9722 15.7266 12.8081 16.7031 12.7573C17.7656 12.7183 18.0781 12.7065 20.7539 12.7065L20.793 12.7339ZM20.793 15.7964C17.957 15.7964 15.6562 18.0972 15.6562 20.9331C15.6562 23.769 17.957 26.0698 20.793 26.0698C23.6289 26.0698 25.9297 23.769 25.9297 20.9331C25.9297 18.0972 23.6289 15.7964 20.793 15.7964ZM20.793 24.2651C18.9531 24.2651 17.4609 22.7729 17.4609 20.9331C17.4609 19.0933 18.9531 17.6011 20.793 17.6011C22.6328 17.6011 24.125 19.0933 24.125 20.9331C24.125 22.7729 22.6328 24.2651 20.793 24.2651ZM27.332 15.5972C27.332 16.2612 26.793 16.7964 26.1328 16.7964C25.4688 16.7964 24.9336 16.2573 24.9336 15.5972C24.9336 14.937 25.4727 14.3979 26.1328 14.3979C26.793 14.394 27.332 14.9331 27.332 15.5972Z" fill="white"/>
</svg>
