<svg width="41" height="41" viewBox="0 0 41 41" fill="none" xmlns="http://www.w3.org/2000/svg">
<path d="M20.7969 40.9331C31.8426 40.9331 40.7969 31.9788 40.7969 20.9331C40.7969 9.88741 31.8426 0.933105 20.7969 0.933105C9.75118 0.933105 0.796875 9.88741 0.796875 20.9331C0.796875 31.9788 9.75118 40.9331 20.7969 40.9331Z" fill="#0A66C2"/>
<path d="M27.8711 28.0112H24.9023V23.3628C24.9023 22.2534 24.8789 20.8276 23.3555 20.8276C21.8086 20.8276 21.5703 22.0347 21.5703 23.2808V28.0112H18.6016V18.4487H21.4531V19.7534H21.4922C21.8906 19.0034 22.8594 18.2104 24.3047 18.2104C27.3125 18.2104 27.8672 20.1909 27.8672 22.7651L27.8711 28.0112ZM15.2539 17.1401C14.2969 17.1401 13.5312 16.3667 13.5312 15.4175C13.5312 14.4683 14.3008 13.6948 15.2539 13.6948C16.207 13.6948 16.9766 14.4683 16.9766 15.4175C16.9766 16.3667 16.2031 17.1401 15.2539 17.1401ZM16.7422 28.0112H13.7656V18.4487H16.7422V28.0112ZM29.3555 10.9331H12.2773C11.4609 10.9331 10.7969 11.5776 10.7969 12.3784V29.5269C10.7969 30.3237 11.457 30.9722 12.2773 30.9722H29.3516C30.168 30.9722 30.8359 30.3276 30.8359 29.5269V12.3784C30.8359 11.5776 30.168 10.9331 29.3555 10.9331Z" fill="white"/>
</svg>
