<svg width="41" height="41" viewBox="0 0 41 41" fill="none" xmlns="http://www.w3.org/2000/svg">
<path d="M20.7969 40.9331C31.8426 40.9331 40.7969 31.9788 40.7969 20.9331C40.7969 9.88741 31.8426 0.933105 20.7969 0.933105C9.75118 0.933105 0.796875 9.88741 0.796875 20.9331C0.796875 31.9788 9.75118 40.9331 20.7969 40.9331Z" fill="#1DA1F2"/>
<path d="M31.1719 14.7915C30.4375 15.1157 29.6523 15.3345 28.8242 15.436C29.668 14.9282 30.3164 14.1274 30.6211 13.1743C29.832 13.6353 28.9531 13.9712 28.0234 14.1587C27.2773 13.3618 26.2188 12.8618 25.0391 12.8618C22.7812 12.8618 20.9492 14.6938 20.9492 16.9478C20.9492 17.272 20.9883 17.5845 21.0547 17.8813C17.6562 17.7212 14.6406 16.0884 12.625 13.6196C12.2695 14.2212 12.0703 14.9165 12.0703 15.6782C12.0703 17.1001 12.793 18.3501 13.8906 19.0845C13.2188 19.061 12.5898 18.8774 12.0391 18.5728V18.6235C12.0391 20.6079 13.4453 22.2603 15.3203 22.6353C14.9766 22.729 14.6133 22.7759 14.2422 22.7759C13.9805 22.7759 13.7305 22.7524 13.4805 22.7056C14.0039 24.3306 15.5117 25.5142 17.3086 25.5454C15.9141 26.6431 14.1406 27.2954 12.2383 27.2954C11.9141 27.2954 11.5898 27.2759 11.2656 27.2407C13.0859 28.4009 15.2305 29.0767 17.5469 29.0767C25.0664 29.0767 29.1797 22.8462 29.1797 17.4517C29.1797 17.2798 29.1797 17.104 29.168 16.9282C29.9648 16.354 30.6641 15.6313 31.2109 14.811L31.1719 14.7915Z" fill="white"/>
</svg>
